<svg xmlns="http://www.w3.org/2000/svg" width="640" height="220" viewBox="0 0 640 220">
  <defs>
    <linearGradient id="lg" x1="0" y1="0" x2="1" y2="1">
      <stop offset="0" stop-color="#fb923c"/>
      <stop offset="1" stop-color="#c2410c"/>
    </linearGradient>
    <filter id="s" x="-20%" y="-40%" width="140%" height="180%">
      <feDropShadow dx="0" dy="10" stdDeviation="10" flood-color="rgba(0,0,0,0.18)"/>
    </filter>
  </defs>
  <rect x="0" y="0" width="640" height="220" rx="28" fill="url(#lg)"/>
  <circle cx="520" cy="60" r="90" fill="rgba(255,255,255,0.16)"/>
  <circle cx="520" cy="60" r="55" fill="rgba(255,255,255,0.12)"/>
  <g filter="url(#s)">
    <rect x="58" y="78" width="210" height="110" rx="18" fill="rgba(255,255,255,0.92)"/>
    <path d="M58 98h210" stroke="#c2410c" stroke-width="6" opacity="0.65"/>
    <path d="M78 78l18-32h134l18 32" fill="rgba(255,255,255,0.92)"/>
    <path d="M76 98c22 16 44 16 66 0c22 16 44 16 66 0c22 16 44 16 66 0" fill="none" stroke="#c2410c" stroke-width="6" stroke-linecap="round"/>
    <rect x="86" y="118" width="66" height="56" rx="12" fill="#c2410c" opacity="0.12"/>
    <rect x="166" y="118" width="92" height="56" rx="12" fill="#fb923c" opacity="0.14"/>
  </g>
  <g fill="rgba(255,255,255,0.96)">
    <text x="290" y="98" font-family="system-ui, -apple-system, Segoe UI, Roboto" font-weight="900" font-size="34">WarungKu</text>
    <text x="290" y="132" font-family="system-ui, -apple-system, Segoe UI, Roboto" font-weight="700" font-size="18" opacity="0.95">Krem Pasar • Hangat • Ramah</text>
  </g>
</svg>
